# xmcd CD database file
#
# Track frame offsets:
#	150
#	27384
#	52171
#	76047
#	93761
#	118053
#	135038
#	160357
#	185297
#	204583
#
# Disc length: 2971 seconds
#
# Revision: 0
# Processed by: cddbd v1.5.2PL0 Copyright (c) Steve Scherf et al.
# Submitted via: CDex 1.70beta2
#
DISCID=780b990a
DTITLE=BLACKQP'67 - ANISON CLUB JAZZ
DYEAR=2012
DGENRE=Jazz
TTITLE0=銀河鉄道999
TTITLE1=ニュー・ジャズ・サンバ
TTITLE2=名探偵コナン
TTITLE3=今日もどこかでデビルマン
TTITLE4=バビル2世
TTITLE5=テケテケ
TTITLE6=コブラ
TTITLE7=キューティーハニー
TTITLE8=アタックNo,1
TTITLE9=ゴールデン・ジャイブ
EXTD=YEAR: 2012
EXTT0=
EXTT1=
EXTT2=
EXTT3=
EXTT4=
EXTT5=
EXTT6=
EXTT7=
EXTT8=
EXTT9=
PLAYORDER=
